<svg width="34" height="50" viewBox="0 0 34 50" fill="none" xmlns="http://www.w3.org/2000/svg">
<path d="M26.4294 36.7497C25.7464 42.8537 20.5318 47.6401 14.2526 47.6401C7.51319 47.6401 2 42.1265 2 35.3875V14.2526C2 7.51366 7.51319 2 14.2526 2C20.992 2 26.5052 7.51366 26.5052 14.2526V19.6679" stroke="white" stroke-width="3" stroke-miterlimit="22.9256" stroke-linecap="round" stroke-linejoin="round"/>
<path fill-rule="evenodd" clip-rule="evenodd" d="M14.2526 5.29565C19.1426 5.29565 23.1066 9.25974 23.1066 14.1496C23.1066 18.282 20.2756 21.7529 16.4473 22.7292C16.2457 21.7011 15.3398 20.9255 14.2526 20.9255C13.1654 20.9255 12.2596 21.7011 12.058 22.7292C8.2297 21.7529 5.39868 18.282 5.39868 14.1496C5.39868 9.25974 9.36267 5.29565 14.2526 5.29565Z" stroke="white" stroke-width="3" stroke-miterlimit="22.9256" stroke-linecap="round" stroke-linejoin="round"/>
<path d="M14.2525 25.3988C15.4878 25.3988 16.4892 24.3974 16.4892 23.1621C16.4892 21.9268 15.4878 20.9254 14.2525 20.9254C13.0173 20.9254 12.0159 21.9268 12.0159 23.1621C12.0159 24.3974 13.0173 25.3988 14.2525 25.3988Z" stroke="white" stroke-width="3" stroke-miterlimit="22.9256" stroke-linecap="round" stroke-linejoin="round"/>
<path d="M8.81689 15.2017C9.14131 14.3666 9.95277 13.7747 10.9025 13.7747C11.8522 13.7747 12.6636 14.3666 12.9881 15.2017" stroke="white" stroke-width="3" stroke-miterlimit="22.9256" stroke-linecap="round" stroke-linejoin="round"/>
<path d="M15.517 15.2017C15.8414 14.3666 16.6528 13.7747 17.6026 13.7747C18.5523 13.7747 19.3637 14.3666 19.6881 15.2017" stroke="white" stroke-width="3" stroke-miterlimit="22.9256" stroke-linecap="round" stroke-linejoin="round"/>
<path d="M10.9026 18.1201C11.7837 18.1201 12.498 17.4058 12.498 16.5246C12.498 15.6435 11.7837 14.9292 10.9026 14.9292C10.0214 14.9292 9.30713 15.6435 9.30713 16.5246C9.30713 17.4058 10.0214 18.1201 10.9026 18.1201Z" stroke="white" stroke-width="3" stroke-miterlimit="22.9256" stroke-linecap="round" stroke-linejoin="round"/>
<path d="M17.6023 18.1201C18.4834 18.1201 19.1977 17.4058 19.1977 16.5246C19.1977 15.6435 18.4834 14.9292 17.6023 14.9292C16.7211 14.9292 16.0068 15.6435 16.0068 16.5246C16.0068 17.4058 16.7211 18.1201 17.6023 18.1201Z" stroke="white" stroke-width="3" stroke-miterlimit="22.9256" stroke-linecap="round" stroke-linejoin="round"/>
<path d="M14.2526 24.196C14.8235 24.196 15.2863 23.7332 15.2863 23.1623C15.2863 22.5914 14.8235 22.1287 14.2526 22.1287C13.6818 22.1287 13.219 22.5914 13.219 23.1623C13.219 23.7332 13.6818 24.196 14.2526 24.196Z" stroke="white" stroke-width="3" stroke-miterlimit="22.9256" stroke-linecap="round" stroke-linejoin="round"/>
<path fill-rule="evenodd" clip-rule="evenodd" d="M21.4387 29.6766V26.6988H25.0162V23.1213H27.994V26.6988H31.5715V29.6766H27.994V33.2541H25.0162V29.6766H21.4387Z" stroke="white" stroke-width="3" stroke-miterlimit="22.9256" stroke-linecap="round" stroke-linejoin="round"/>
</svg>
