<svg width="374" height="38" viewBox="0 0 374 38" fill="none" xmlns="http://www.w3.org/2000/svg">
<circle cx="10.5" cy="16.5" r="10.5" fill="#EA5D4A"/>
<path fill-rule="evenodd" clip-rule="evenodd" d="M8.5394 13.8669C8.59547 13.6071 8.24189 12.8471 8.14247 12.5917C8.03407 12.3134 7.53697 10.9734 7.42858 10.784C7.3015 10.5616 7.21329 10.5246 6.89859 10.5061C6.39961 10.4776 5.91298 10.5415 5.59864 10.8174C5.01969 11.3261 4.59659 12.2696 4.5181 13.1137C4.41718 14.2031 4.75432 15.065 5.13144 15.862C5.38261 16.3925 6.09462 17.4337 6.45119 17.9058C6.70535 18.2444 6.90345 18.4865 7.19124 18.8243C7.4667 19.1493 7.65508 19.3334 7.98848 19.6829L8.43363 20.0943C8.81636 20.4478 9.41774 20.8576 9.85131 21.1432C10.4082 21.5127 11.4047 21.9286 12.0972 22.1582C13.0156 22.4646 13.8165 22.6846 14.7749 22.278C15.8539 21.8208 16.4445 21.1146 16.496 19.81C16.5102 19.4573 16.4983 19.3519 16.252 19.214C15.8969 19.0153 15.54 18.8384 15.1819 18.6498C14.8149 18.4547 14.4706 18.277 14.1025 18.096C13.3052 17.7055 13.2675 18.0642 12.7057 18.877C12.1597 19.666 12.0602 19.6938 11.1632 19.255C10.3873 18.8738 9.77057 18.3787 9.24394 17.8881C9.09855 17.755 8.96549 17.5792 8.83579 17.4385C8.56893 17.1465 8.34205 16.8393 8.10957 16.5035C7.4667 15.5733 7.37513 15.4 7.85803 14.8687C8.02062 14.6914 8.46951 14.187 8.5394 13.8669Z" fill="white"/>
<path d="M41.52 25.76V18.12H33.84V13.72L41.52 13.72V6.08L46.08 6.08V13.72L53.76 13.72V18.12H46.08V25.76L41.52 25.76ZM60.8259 30L73.3859 6.32L59.3059 6.32V2L78.9859 2V5.72L66.3459 30L60.8259 30ZM109.433 30V23.72L95.3131 23.72L94.3931 20.2L109.953 1.8L114.153 1.8V19.68H118.153V23.72H114.153V30H109.433ZM100.233 19.68L109.433 19.68V8.6L100.233 19.68ZM131.749 30.48C128.469 30.48 125.482 29.36 122.789 27.12L125.469 23.36C127.549 25.12 129.682 26 131.869 26C133.896 26 135.509 25.2 136.709 23.6C137.909 21.9733 138.549 19.84 138.629 17.2C136.976 19.1733 134.789 20.16 132.069 20.16C129.082 20.16 126.682 19.3467 124.869 17.72C123.056 16.0933 122.149 13.92 122.149 11.2C122.149 8.42667 123.122 6.12 125.069 4.28C127.016 2.44 129.522 1.52 132.589 1.52C135.789 1.52 138.376 2.50667 140.349 4.48C142.616 6.74667 143.749 10.3333 143.749 15.24C143.749 19.8 142.669 23.48 140.509 26.28C138.376 29.08 135.456 30.48 131.749 30.48ZM128.629 14.64C129.669 15.5733 131.056 16.04 132.789 16.04C134.522 16.04 135.896 15.5467 136.909 14.56C137.949 13.5733 138.469 12.36 138.469 10.92C138.469 9.42666 137.936 8.2 136.869 7.24C135.802 6.25333 134.389 5.76 132.629 5.76C130.922 5.76 129.562 6.26667 128.549 7.28C127.562 8.26667 127.069 9.52 127.069 11.04C127.069 12.5067 127.589 13.7067 128.629 14.64ZM158.199 30.48C154.279 30.48 150.852 29.0533 147.919 26.2L150.959 22.64C153.359 24.88 155.759 26 158.159 26C159.839 26 161.186 25.56 162.199 24.68C163.212 23.7733 163.719 22.5733 163.719 21.08C163.719 19.6667 163.172 18.5467 162.079 17.72C161.012 16.8667 159.626 16.44 157.919 16.44C156.239 16.44 154.519 16.8533 152.759 17.68L149.799 15.72L150.599 2L167.319 2V6.36L154.839 6.36L154.399 12.92C155.866 12.3867 157.346 12.12 158.839 12.12C161.692 12.12 164.026 12.88 165.839 14.4C167.652 15.92 168.559 18.12 168.559 21C168.559 23.8533 167.599 26.1467 165.679 27.88C163.786 29.6133 161.292 30.48 158.199 30.48ZM190.034 30V6.8L184.994 8.2L183.954 4.2L191.474 1.8L194.914 1.8V30H190.034ZM200.733 30V26.12L210.373 17.92C212.347 16.2667 213.707 14.9067 214.453 13.84C215.227 12.7467 215.613 11.5867 215.613 10.36C215.613 9.02667 215.187 7.97333 214.333 7.2C213.48 6.4 212.4 6 211.093 6C209.867 6 208.76 6.33333 207.773 7C206.813 7.66667 205.76 8.73333 204.613 10.2L201.133 7.48C202.573 5.45333 204.053 3.97333 205.573 3.04C207.12 2.08 209.08 1.6 211.453 1.6C214.2 1.6 216.427 2.37333 218.133 3.92C219.84 5.46667 220.693 7.50667 220.693 10.04C220.693 11.1333 220.56 12.12 220.293 13C220.027 13.8533 219.547 14.7333 218.853 15.64C218.187 16.52 217.453 17.3333 216.653 18.08C215.88 18.8 214.8 19.7333 213.413 20.88L207.653 25.68L220.973 25.68V30L200.733 30ZM235.745 30.48C231.291 30.48 227.718 28.84 225.025 25.56L228.465 22.36C230.545 24.8133 232.998 26.04 235.825 26.04C237.238 26.04 238.398 25.6533 239.305 24.88C240.211 24.08 240.665 23.0267 240.665 21.72C240.665 20.36 240.078 19.3067 238.905 18.56C237.758 17.7867 236.198 17.4 234.225 17.4H231.945L231.145 14.32L238.705 6.28L226.585 6.28V2L245.105 2V5.68L237.305 13.68C239.758 14.0267 241.745 14.8533 243.265 16.16C244.785 17.44 245.545 19.2667 245.545 21.64C245.545 24.2267 244.625 26.3467 242.785 28C240.971 29.6533 238.625 30.48 235.745 30.48ZM272.463 30.48C268.01 30.48 264.437 28.84 261.743 25.56L265.183 22.36C267.263 24.8133 269.717 26.04 272.543 26.04C273.957 26.04 275.117 25.6533 276.023 24.88C276.93 24.08 277.383 23.0267 277.383 21.72C277.383 20.36 276.797 19.3067 275.623 18.56C274.477 17.7867 272.917 17.4 270.943 17.4H268.663L267.863 14.32L275.423 6.28L263.303 6.28V2L281.823 2V5.68L274.023 13.68C276.477 14.0267 278.463 14.8533 279.983 16.16C281.503 17.44 282.263 19.2667 282.263 21.64C282.263 24.2267 281.343 26.3467 279.503 28C277.69 29.6533 275.343 30.48 272.463 30.48ZM301.23 30V23.72H287.11L286.19 20.2L301.75 1.8L305.95 1.8V19.68L309.95 19.68V23.72L305.95 23.72V30H301.23ZM292.03 19.68H301.23V8.6L292.03 19.68ZM325.929 30V26.12L335.569 17.92C337.542 16.2667 338.902 14.9067 339.649 13.84C340.422 12.7467 340.809 11.5867 340.809 10.36C340.809 9.02667 340.382 7.97333 339.529 7.2C338.675 6.4 337.595 6 336.289 6C335.062 6 333.955 6.33333 332.969 7C332.009 7.66667 330.955 8.73333 329.809 10.2L326.329 7.48C327.769 5.45333 329.249 3.97333 330.769 3.04C332.315 2.08 334.275 1.6 336.649 1.6C339.395 1.6 341.622 2.37333 343.329 3.92C345.035 5.46667 345.889 7.50667 345.889 10.04C345.889 11.1333 345.755 12.12 345.489 13C345.222 13.8533 344.742 14.7333 344.049 15.64C343.382 16.52 342.649 17.3333 341.849 18.08C341.075 18.8 339.995 19.7333 338.609 20.88L332.849 25.68H346.169V30L325.929 30ZM360.66 30.48C356.74 30.48 353.313 29.0533 350.38 26.2L353.42 22.64C355.82 24.88 358.22 26 360.62 26C362.3 26 363.647 25.56 364.66 24.68C365.673 23.7733 366.18 22.5733 366.18 21.08C366.18 19.6667 365.633 18.5467 364.54 17.72C363.473 16.8667 362.087 16.44 360.38 16.44C358.7 16.44 356.98 16.8533 355.22 17.68L352.26 15.72L353.06 2L369.78 2V6.36L357.3 6.36L356.86 12.92C358.327 12.3867 359.807 12.12 361.3 12.12C364.153 12.12 366.487 12.88 368.3 14.4C370.113 15.92 371.02 18.12 371.02 21C371.02 23.8533 370.06 26.1467 368.14 27.88C366.247 29.6133 363.753 30.48 360.66 30.48Z" fill="#334155"/>
</svg>
