<svg width="192" height="52" viewBox="0 0 192 52" fill="none" xmlns="http://www.w3.org/2000/svg">
<path d="M0 0.828125H2.37067V1.37208H0.673855V1.97287H1.48573C1.84295 1.97287 2.11087 2.04594 2.2976 2.19207C2.48433 2.33821 2.57364 2.55742 2.57364 2.83345C2.57364 3.12573 2.4681 3.35305 2.26513 3.51543C2.06216 3.6778 1.76177 3.75899 1.3883 3.75899H0V0.828125ZM1.35583 3.26375C1.52632 3.26375 1.66434 3.23127 1.75365 3.1582C1.84295 3.09325 1.89167 2.98771 1.89167 2.85781C1.89167 2.59801 1.71305 2.46811 1.35583 2.46811H0.673855V3.25563H1.35583V3.26375Z" fill="#F6B31F"/>
<path d="M3.08521 0.828125H3.75906V2.74415L5.1636 0.828125H5.80498V3.76711H5.13113V1.8592L3.72659 3.76711H3.08521V0.828125Z" fill="#F6B31F"/>
<path d="M9.13344 0.828125V3.76711H8.45958V1.38832H7.45286L7.4285 1.99722C7.41227 2.41128 7.37979 2.75227 7.33108 3.01207C7.27425 3.27186 7.19306 3.46671 7.06316 3.60473C6.94138 3.74275 6.76277 3.81582 6.54356 3.81582C6.45426 3.81582 6.34059 3.79958 6.21069 3.76711L6.25129 3.19068C6.28376 3.1988 6.32436 3.20691 6.37307 3.20691C6.53544 3.20691 6.64911 3.10949 6.71406 2.92276C6.77901 2.72791 6.8196 2.42752 6.83584 2.02158L6.87643 0.828125H9.13344Z" fill="#F6B31F"/>
<path d="M9.83179 0.828125H10.5056V2.74415L11.9102 0.828125H12.5516V3.76711H11.8777V1.8592L10.4732 3.76711H9.83179V0.828125Z" fill="#F6B31F"/>
<path d="M15.9371 0.828125V3.76711H15.2551V2.56553H13.9237V3.76711H13.2417V0.828125H13.9237V1.9891H15.2551V0.828125H15.9371Z" fill="#F6B31F"/>
<path d="M18.7055 1.38832H17.309L17.3172 3.77523H16.6433V0.828125H18.7136L18.7055 1.38832Z" fill="#F6B31F"/>
<path d="M21.5633 2.49247C21.6607 2.61425 21.7094 2.76038 21.7094 2.939C21.7094 3.1988 21.612 3.40176 21.4172 3.5479C21.2223 3.69404 20.9382 3.76711 20.5728 3.76711H19.1277V0.828125H20.4998C20.8407 0.828125 21.1087 0.893075 21.2954 1.02297C21.4821 1.15287 21.5795 1.33961 21.5795 1.58317C21.5795 1.7293 21.5471 1.8592 21.474 1.96475C21.4009 2.07841 21.2954 2.1596 21.1655 2.22455C21.3279 2.2895 21.4659 2.3788 21.5633 2.49247ZM19.7934 2.04594H20.4267C20.5728 2.04594 20.6865 2.01346 20.7596 1.95663C20.8326 1.8998 20.8732 1.81049 20.8732 1.68871C20.8732 1.57505 20.8326 1.48574 20.7596 1.42079C20.6865 1.35584 20.5728 1.33149 20.4267 1.33149H19.7934V2.04594ZM21.0194 2.89028C21.0194 2.64672 20.857 2.52494 20.5403 2.52494H19.7934V3.26375H20.5403C20.857 3.26375 21.0194 3.14196 21.0194 2.89028Z" fill="#F6B31F"/>
<path d="M24.2101 3.1419H22.8462L22.5864 3.77516H21.8882L23.1953 0.836182H23.8692L25.1844 3.77516H24.4699L24.2101 3.1419ZM23.9909 2.6223L23.5282 1.4938L23.0654 2.6223H23.9909Z" fill="#F6B31F"/>
<path d="M28.3424 0.828125V3.76711H27.6686V1.38832H26.6618L26.6375 1.99722C26.6213 2.41128 26.5888 2.75227 26.5401 3.01207C26.4832 3.27186 26.402 3.46671 26.2721 3.60473C26.1504 3.74275 25.9718 3.81582 25.7525 3.81582C25.6632 3.81582 25.5496 3.79958 25.4197 3.76711L25.4603 3.19068C25.4927 3.1988 25.5333 3.20691 25.5821 3.20691C25.7444 3.20691 25.8581 3.10949 25.923 2.92276C25.988 2.72791 26.0286 2.42752 26.0448 2.02158L26.0854 0.828125H28.3424Z" fill="#F6B31F"/>
<path d="M31.2897 2.03782C31.4845 2.20019 31.5738 2.43563 31.5738 2.74415C31.5738 3.07701 31.4683 3.3287 31.2572 3.50731C31.0461 3.68592 30.7457 3.76711 30.3641 3.76711H29.0408V0.828125H29.7146V1.79425H30.4616C30.8188 1.79425 31.0948 1.87544 31.2897 2.03782ZM30.7376 3.13385C30.835 3.04454 30.8837 2.92276 30.8837 2.75227C30.8837 2.44375 30.697 2.29762 30.3235 2.29762H29.7146V3.26375H30.3235C30.5021 3.26375 30.6402 3.22315 30.7376 3.13385Z" fill="#F6B31F"/>
<path d="M34.7157 0.828125V3.76711H34.0337V2.56553H32.7022V3.76711H32.0203V0.828125H32.7022V1.9891H34.0337V0.828125H34.7157Z" fill="#F6B31F"/>
<path d="M37.6627 2.03782C37.8576 2.20019 37.9469 2.43563 37.9469 2.74415C37.9469 3.07701 37.8413 3.3287 37.6302 3.50731C37.4191 3.68592 37.1188 3.76711 36.7372 3.76711H35.4138V0.828125H36.0877V1.79425H36.8346C37.1918 1.79425 37.4679 1.87544 37.6627 2.03782ZM37.1188 3.13385C37.2162 3.04454 37.2649 2.92276 37.2649 2.75227C37.2649 2.44375 37.0782 2.29762 36.7047 2.29762H36.0958V3.26375H36.7047C36.8752 3.26375 37.0132 3.22315 37.1188 3.13385ZM38.3203 0.828125H38.9942V3.76711H38.3203V0.828125Z" fill="#F6B31F"/>
<path d="M39.6926 0.828111H40.3665V2.74413L41.771 0.828111H42.4124V3.76709H41.7385V1.85919L40.334 3.76709H39.6926V0.828111ZM40.2366 0H40.6994C40.7075 0.202968 40.8211 0.308512 41.0485 0.308512C41.1621 0.308512 41.2433 0.284156 41.3083 0.227325C41.3651 0.178612 41.3976 0.0974248 41.3976 0H41.8603C41.8603 0.211087 41.7873 0.373462 41.6574 0.479005C41.5193 0.584549 41.3164 0.64138 41.0485 0.64138C40.5126 0.64138 40.2447 0.430293 40.2366 0Z" fill="#F6B31F"/>
<path d="M47.3565 3.21503V4.37601H46.7314V3.76711H44.6611V4.37601H44.0278L44.0359 3.21503H44.1496C44.3282 3.20691 44.45 3.07701 44.5231 2.82533C44.5961 2.57365 44.6367 2.21643 44.6611 1.74554L44.6936 0.828125H46.9506V3.21503H47.3565ZM45.1645 2.69543C45.1157 2.93088 45.0508 3.10949 44.9615 3.21503H46.2767V1.38832H45.27L45.2538 1.81861C45.2375 2.1596 45.2132 2.45187 45.1645 2.69543Z" fill="#F6B31F"/>
<path d="M50.0765 3.22315V3.76711H47.8032V0.828125H50.0196V1.37208H48.4771V2.01346H49.841V2.54118H48.4771V3.22315H50.0765Z" fill="#F6B31F"/>
<path d="M52.9179 1.38826H51.9762V3.77516H51.3023V1.38826H50.3687V0.836182H52.9179V1.38826Z" fill="#F6B31F"/>
<path d="M53.8922 3.62098C53.6486 3.49108 53.4619 3.31246 53.3239 3.07702C53.1859 2.8497 53.1128 2.58178 53.1128 2.29762C53.1128 2.00535 53.1859 1.74555 53.3239 1.51822C53.4619 1.2909 53.6568 1.10417 53.8922 0.974269C54.1358 0.844369 54.4037 0.779419 54.7122 0.779419C54.9639 0.779419 55.1993 0.828131 55.4023 0.917438C55.6052 1.00674 55.7839 1.13664 55.9219 1.30714L55.4835 1.71307C55.2886 1.48575 55.0369 1.37209 54.7447 1.37209C54.566 1.37209 54.4037 1.41268 54.2575 1.49387C54.1114 1.57506 54.0059 1.68872 53.9247 1.82674C53.8435 1.97287 53.8029 2.13525 53.8029 2.31386C53.8029 2.49247 53.8435 2.65485 53.9247 2.80098C54.0059 2.94712 54.1195 3.05267 54.2575 3.13385C54.4037 3.21504 54.566 3.25563 54.7447 3.25563C55.0369 3.25563 55.2886 3.14197 55.4835 2.90653L55.9219 3.31246C55.7839 3.48296 55.6052 3.61286 55.4023 3.70216C55.1912 3.79147 54.9639 3.84018 54.7122 3.84018C54.4037 3.81583 54.1358 3.75088 53.8922 3.62098Z" fill="#F6B31F"/>
<path d="M57.4807 2.58177H57.0098V3.76711H56.3359V0.828125H57.0098V2.01346H57.4969L58.2682 0.828125H58.9826L58.0246 2.2489L59.0151 3.76711H58.2438L57.4807 2.58177Z" fill="#F6B31F"/>
<path d="M59.4209 0.828125H60.0948V2.74415L61.4993 0.828125H62.1407V3.76711H61.4668V1.8592L60.0623 3.76711H59.4209V0.828125Z" fill="#F6B31F"/>
<path d="M62.8308 0.828111H63.5047V2.74413L64.9092 0.828111H65.5506V3.76709H64.8767V1.85919L63.4722 3.76709H62.8308V0.828111ZM63.3748 0H63.8375C63.8457 0.202968 63.9593 0.308512 64.1866 0.308512C64.3003 0.308512 64.3815 0.284156 64.4464 0.227325C64.5033 0.178612 64.5357 0.0974248 64.5357 0H64.9985C64.9985 0.211087 64.9254 0.373462 64.7955 0.479005C64.6575 0.584549 64.4546 0.64138 64.1866 0.64138C63.6508 0.64138 63.3748 0.430293 63.3748 0Z" fill="#F6B31F"/>
<path d="M68.0431 3.62098C67.7995 3.49108 67.6128 3.31246 67.4748 3.07702C67.3367 2.8497 67.2637 2.58178 67.2637 2.29762C67.2637 2.00535 67.3367 1.74555 67.4748 1.51822C67.6128 1.2909 67.8076 1.10417 68.0431 0.974269C68.2866 0.844369 68.5545 0.779419 68.8631 0.779419C69.1147 0.779419 69.3502 0.828131 69.5532 0.917438C69.7561 1.00674 69.9347 1.13664 70.0728 1.30714L69.6343 1.71307C69.4395 1.48575 69.1878 1.37209 68.8955 1.37209C68.7169 1.37209 68.5545 1.41268 68.4084 1.49387C68.2623 1.57506 68.1567 1.68872 68.0755 1.82674C67.9944 1.97287 67.9538 2.13525 67.9538 2.31386C67.9538 2.49247 67.9944 2.65485 68.0755 2.80098C68.1567 2.94712 68.2704 3.05267 68.4084 3.13385C68.5545 3.21504 68.7169 3.25563 68.8955 3.25563C69.1878 3.25563 69.4395 3.14197 69.6343 2.90653L70.0728 3.31246C69.9347 3.48296 69.7561 3.61286 69.5532 3.70216C69.3421 3.79147 69.1147 3.84018 68.8631 3.84018C68.5545 3.81583 68.2866 3.75088 68.0431 3.62098Z" fill="#F6B31F"/>
<path d="M72.549 3.1419H71.1851L70.9253 3.77516H70.2271L71.5342 0.836182H72.208L73.5233 3.76705H72.8088L72.549 3.1419ZM72.3379 2.6223L71.8752 1.4938L71.4124 2.6223H72.3379Z" fill="#F6B31F"/>
<path d="M77.0955 3.21503V4.37601H76.4623V3.76711H74.392V4.37601H73.7668L73.775 3.21503H73.8886C74.0672 3.20691 74.189 3.07701 74.2621 2.82533C74.3352 2.57365 74.3757 2.21643 74.4001 1.74554L74.4326 0.828125H76.6896V3.21503H77.0955ZM74.9035 2.69543C74.8548 2.93088 74.7898 3.10949 74.7005 3.21503H76.0157V1.38832H75.009L74.9928 1.81861C74.9847 2.1596 74.9522 2.45187 74.9035 2.69543Z" fill="#F6B31F"/>
<path d="M168.472 24.34L165.833 24.3644C164.802 24.3644 163.877 24.5105 163.049 24.8109C162.221 25.1113 161.514 25.5497 160.922 26.1424C160.329 26.7269 159.882 27.4657 159.574 28.3426C159.257 29.2194 159.103 30.2342 159.103 31.379V42.1201H153.818V19.7042H158.112L158.591 22.3834C159.346 21.6121 160.304 20.9707 161.457 20.4674C162.61 19.9559 163.982 19.7042 165.565 19.7042H168.488V24.34H168.472Z" fill="#F6B31F"/>
<path d="M23.0166 19.6718H28.3831V42.0876H23.0166V19.6718Z" fill="#F6B31F"/>
<path d="M92.0908 35.3327C92.107 35.7549 92.2288 36.1527 92.4724 36.5343C92.7078 36.9159 93.0325 37.2406 93.4385 37.5166C93.8444 37.7927 94.3153 38.0119 94.8511 38.1661C95.387 38.3285 95.9715 38.4097 96.5967 38.4097C98.2772 38.4097 99.5194 38.158 100.323 37.6628C101.119 37.1594 101.525 36.4856 101.525 35.625C101.525 35.146 101.379 34.7481 101.086 34.4234C100.794 34.1068 100.372 33.8389 99.8198 33.6196C99.2677 33.4004 98.5939 33.2137 97.7901 33.0432C96.9945 32.8727 96.0852 32.6941 95.0703 32.5074C94.5589 32.4343 94.0311 32.3369 93.471 32.2232C92.9108 32.1096 92.3587 31.9553 91.8066 31.7523C91.2545 31.5575 90.7268 31.3058 90.2235 30.9973C89.7201 30.6888 89.2817 30.3153 88.9001 29.8769C88.5104 29.4304 88.2019 28.9027 87.9746 28.2856C87.7472 27.6686 87.6255 26.9379 87.6255 26.0936C87.6255 25.0463 87.8122 24.0964 88.1938 23.2277C88.5754 22.3671 89.1599 21.612 89.9555 20.9869C90.7512 20.3536 91.7741 19.8665 93.0082 19.5174C94.2422 19.1683 95.7198 18.9978 97.4329 18.9978C98.7806 18.9978 99.9984 19.1683 101.078 19.5174C102.158 19.8665 103.075 20.3536 103.83 20.9788C104.586 21.6039 105.17 22.3508 105.576 23.2195C105.982 24.0882 106.185 25.0381 106.185 26.0692L100.891 26.0449C100.835 25.2573 100.461 24.616 99.7792 24.1045C99.0972 23.593 98.1879 23.3413 97.0594 23.3413C96.3206 23.3413 95.6874 23.4144 95.1678 23.5687C94.6482 23.7229 94.2179 23.9178 93.885 24.1694C93.5521 24.413 93.3005 24.7053 93.1462 25.03C92.9838 25.3548 92.9026 25.6958 92.9026 26.0449C92.9026 26.4508 93.0082 26.7918 93.2274 27.0678C93.4466 27.3439 93.7714 27.5793 94.2098 27.766C94.6482 27.9528 95.2002 28.1151 95.866 28.245C96.5317 28.3749 97.3192 28.4886 98.2204 28.5941C99.3083 28.7646 100.388 28.9838 101.444 29.2355C102.507 29.4872 103.449 29.8526 104.277 30.3316C105.105 30.8106 105.771 31.4438 106.282 32.2232C106.794 33.0107 107.045 34.0175 107.045 35.2515C107.045 36.518 106.794 37.6141 106.282 38.5558C105.771 39.4895 105.056 40.2689 104.123 40.894C103.197 41.5192 102.077 41.9901 100.77 42.2986C99.4626 42.6071 98.0093 42.7695 96.4099 42.7695C94.8105 42.7695 93.4222 42.5503 92.2288 42.1037C91.0353 41.6572 90.0449 41.0808 89.2573 40.3744C88.4617 39.66 87.8771 38.8643 87.4793 37.9794C87.0896 37.0945 86.8948 36.2014 86.8948 35.3002L92.0908 35.3327Z" fill="#F6B31F"/>
<path d="M11.8615 29.0812L19.7285 19.6716H13.5177L6.61677 27.6767H5.77242V11.3905H0.479004V42.0874H5.77242V36.8996V33.0107H8.05378L14.086 42.0874H20.4267L11.8615 29.0812Z" fill="#F6B31F"/>
<path d="M23.0166 11.3905L23.252 17.4958H28.1801L28.3831 11.3905H23.0166Z" fill="#F6B31F"/>
<path d="M31.8174 30.8917C31.8174 29.2517 32.1015 27.7092 32.6699 26.264C33.2382 24.8189 34.0338 23.5524 35.073 22.4726C36.1122 21.3928 37.3625 20.5403 38.832 19.9152C40.3015 19.29 41.9252 18.9815 43.7113 18.9815C45.327 18.9815 46.7559 19.2494 48.0061 19.7853C49.2564 20.3211 50.3362 21.0031 51.2536 21.8312V11.3905H56.5471V42.0793H52.0087L51.6839 39.4651C51.2374 39.9279 50.7259 40.3663 50.1738 40.7641C49.6137 41.1619 48.9966 41.511 48.3309 41.8114C47.6652 42.1118 46.9507 42.3472 46.1957 42.5177C45.4406 42.6882 44.645 42.7775 43.8006 42.7775C42.0145 42.7775 40.3827 42.469 38.9132 41.8439C37.4356 41.2187 36.1771 40.3663 35.1379 39.2946C34.0906 38.2229 33.2788 36.9645 32.7023 35.5194C32.1097 34.0743 31.8174 32.5317 31.8174 30.8917ZM37.1108 30.8674C37.1108 31.939 37.2975 32.9295 37.6791 33.8307C38.0607 34.7319 38.5722 35.5032 39.2217 36.1527C39.8712 36.8021 40.6343 37.2974 41.5112 37.6546C42.3799 38.0118 43.3216 38.1905 44.3202 38.1905C45.3107 38.1905 46.2363 38.0118 47.105 37.6546C47.9737 37.2974 48.7368 36.794 49.3782 36.1527C50.0196 35.5032 50.5392 34.74 50.9127 33.8469C51.2942 32.9539 51.481 31.9634 51.481 30.8755C51.481 29.8119 51.2942 28.8377 50.9127 27.9446C50.5311 27.0515 50.0196 26.2884 49.3701 25.647C48.7206 25.0056 47.9574 24.5104 47.0806 24.145C46.2119 23.7797 45.2701 23.6011 44.2715 23.6011C43.2729 23.6011 42.3311 23.7797 41.4624 24.1369C40.5937 24.4941 39.8306 24.9975 39.1892 25.6389C38.5397 26.2884 38.0363 27.0515 37.6629 27.9446C37.2975 28.8295 37.1108 29.8038 37.1108 30.8674Z" fill="#EA5D4A"/>
<path d="M42.258 46.9912L42.0713 51.765H44.7342L44.5475 46.9912H42.258Z" fill="#EA5D4A"/>
<path d="M49.8328 44.7587L47.8438 45.9115L50.0683 50.1333L52.374 48.8018L49.8328 44.7587Z" fill="#EA5D4A"/>
<path d="M34.4316 48.8018L36.7292 50.1333L38.9619 45.9115L36.9728 44.7587L34.4316 48.8018Z" fill="#EA5D4A"/>
<path d="M125.719 30.8917C125.719 29.2518 126.027 27.7092 126.636 26.2641C127.245 24.8189 128.097 23.5605 129.193 22.4807C130.289 21.4091 131.588 20.5566 133.107 19.9315C134.617 19.3063 136.265 18.9978 138.051 18.9978C139.853 18.9978 141.509 19.3063 143.028 19.9315C144.546 20.5566 145.853 21.4091 146.949 22.4807C148.045 23.5524 148.906 24.8189 149.523 26.2641C150.14 27.7092 150.448 29.2518 150.448 30.8917C150.448 32.548 150.14 34.0905 149.531 35.5275C148.922 36.9646 148.061 38.223 146.957 39.2946C145.853 40.3663 144.546 41.2188 143.028 41.8358C141.509 42.4528 139.845 42.7613 138.027 42.7613C136.24 42.7613 134.6 42.4528 133.09 41.8358C131.588 41.2188 130.289 40.3744 129.201 39.2946C128.114 38.223 127.261 36.9646 126.644 35.5194C126.027 34.0743 125.719 32.5317 125.719 30.8917ZM131.012 30.8674C131.012 31.9391 131.199 32.9296 131.564 33.8226C131.937 34.7157 132.441 35.487 133.082 36.1283C133.724 36.7778 134.47 37.2812 135.323 37.6384C136.184 38.0038 137.101 38.1824 138.091 38.1824C139.082 38.1824 139.999 38.0038 140.86 37.6465C141.721 37.2893 142.467 36.786 143.101 36.1446C143.742 35.4951 144.245 34.7238 144.619 33.8226C144.984 32.9214 145.171 31.9309 145.171 30.8593C145.171 29.7957 144.984 28.8215 144.619 27.9284C144.245 27.0353 143.742 26.2722 143.101 25.6308C142.459 24.9894 141.712 24.4942 140.844 24.1288C139.983 23.7635 139.066 23.5849 138.091 23.5849C137.101 23.5849 136.184 23.7635 135.323 24.1207C134.462 24.4779 133.715 24.9813 133.082 25.6227C132.441 26.2722 131.937 27.0353 131.564 27.9284C131.199 28.8377 131.012 29.812 131.012 30.8674Z" fill="#EA5D4A"/>
<path d="M136.906 14.6544H139.204L139.39 9.88867H136.728L136.906 14.6544Z" fill="#EA5D4A"/>
<path d="M129.08 12.8519L131.629 16.8869L133.61 15.7421L131.385 11.5204L129.08 12.8519Z" fill="#EA5D4A"/>
<path d="M144.724 11.5204L142.5 15.7421L144.489 16.8869L147.03 12.8519L144.724 11.5204Z" fill="#EA5D4A"/>
<path d="M130.346 32.1258C130.346 31.6468 130.435 31.2003 130.614 30.7862C130.793 30.364 131.036 29.9987 131.353 29.6902C131.67 29.3817 132.051 29.13 132.49 28.9514C132.928 28.7728 133.407 28.6835 133.927 28.6835C134.446 28.6835 134.933 28.7728 135.372 28.9514C135.81 29.13 136.192 29.3817 136.508 29.6902C136.825 29.9987 137.077 30.364 137.255 30.7862C137.434 31.2084 137.523 31.6549 137.523 32.1258C137.523 32.6048 137.434 33.0514 137.255 33.4735C137.077 33.8876 136.833 34.2529 136.508 34.5696C136.192 34.8781 135.81 35.1297 135.372 35.3084C134.933 35.487 134.446 35.5763 133.918 35.5763C133.399 35.5763 132.92 35.487 132.49 35.3084C132.051 35.1297 131.678 34.8862 131.361 34.5696C131.044 34.261 130.801 33.8957 130.622 33.4735C130.435 33.0514 130.346 32.6048 130.346 32.1258Z" fill="#EA5D4A"/>
<path d="M36.4937 32.1258C36.4937 31.6468 36.583 31.2003 36.7616 30.7862C36.9402 30.364 37.1837 29.9987 37.5004 29.6902C37.817 29.3817 38.1986 29.13 38.637 28.9514C39.0754 28.7728 39.5544 28.6835 40.074 28.6835C40.5936 28.6835 41.0807 28.7728 41.5191 28.9514C41.9576 29.13 42.3391 29.3817 42.6558 29.6902C42.9724 29.9987 43.2241 30.364 43.4027 30.7862C43.5813 31.2084 43.6706 31.6549 43.6706 32.1258C43.6706 32.6048 43.5813 33.0514 43.4027 33.4735C43.2241 33.8876 42.9805 34.2529 42.6558 34.5696C42.3391 34.8781 41.9576 35.1297 41.5191 35.3084C41.0807 35.487 40.5936 35.5763 40.0659 35.5763C39.5463 35.5763 39.0673 35.487 38.637 35.3084C38.1986 35.1297 37.8251 34.8862 37.5085 34.5696C37.1919 34.261 36.9483 33.8957 36.7697 33.4735C36.583 33.0514 36.4937 32.5967 36.4937 32.1258Z" fill="#EA5D4A"/>
<path d="M64.0974 35.3327C64.1136 35.7549 64.2354 36.1527 64.4789 36.5343C64.7144 36.9159 65.0391 37.2406 65.4451 37.5166C65.851 37.7927 66.3219 38.0119 66.8577 38.1661C67.3936 38.3285 67.9781 38.4097 68.6033 38.4097C70.2838 38.4097 71.526 38.158 72.3298 37.6628C73.1254 37.1594 73.5313 36.4856 73.5313 35.625C73.5313 35.146 73.3852 34.7481 73.0929 34.4234C72.8006 34.1068 72.3785 33.8389 71.8264 33.6196C71.2743 33.4004 70.6005 33.2137 69.7967 33.0432C69.0011 32.8727 68.0918 32.6941 67.0769 32.5074C66.5655 32.4343 66.0377 32.3369 65.4775 32.2232C64.9174 32.1096 64.3653 31.9553 63.8132 31.7523C63.2611 31.5575 62.7334 31.3058 62.23 30.9973C61.7267 30.6888 61.2883 30.3153 60.9067 29.8769C60.517 29.4304 60.2166 28.9027 59.9812 28.2856C59.7457 27.6686 59.6321 26.9379 59.6321 26.0936C59.6321 25.0463 59.8188 24.0964 60.2004 23.2277C60.5819 22.3671 61.1665 21.612 61.9621 20.9869C62.7578 20.3536 63.7807 19.8665 65.0148 19.5174C66.2488 19.1683 67.7264 18.9978 69.4395 18.9978C70.7872 18.9978 72.005 19.1683 73.0848 19.5174C74.1646 19.8665 75.082 20.3536 75.837 20.9788C76.5921 21.6039 77.1766 22.3508 77.5826 23.2195C77.9885 24.0882 78.1915 25.0381 78.1915 26.0692L72.8981 26.0449C72.8412 25.2573 72.4678 24.616 71.7858 24.1045C71.1038 23.593 70.1945 23.3413 69.066 23.3413C68.3272 23.3413 67.694 23.4144 67.1744 23.5687C66.6548 23.7229 66.2245 23.9178 65.8916 24.1694C65.5587 24.413 65.307 24.7053 65.1528 25.03C64.9904 25.3548 64.9092 25.6958 64.9092 26.0449C64.9092 26.4508 65.0148 26.7918 65.234 27.0678C65.4532 27.3439 65.7779 27.5793 66.2163 27.766C66.6548 27.9528 67.2068 28.1151 67.8726 28.245C68.5383 28.3749 69.3258 28.4886 70.227 28.5941C71.3149 28.7646 72.3947 28.9838 73.4501 29.2355C74.5137 29.4872 75.4555 29.8526 76.2836 30.3316C77.1117 30.8106 77.7774 31.4438 78.2889 32.2232C78.8004 33.0107 79.0521 34.0175 79.0521 35.2515C79.0521 36.518 78.8004 37.6141 78.2889 38.5558C77.7774 39.4895 77.063 40.2689 76.1293 40.894C75.2038 41.5192 74.0834 41.9901 72.7763 42.2986C71.4692 42.6071 70.0159 42.7695 68.4165 42.7695C66.8171 42.7695 65.4288 42.5503 64.2354 42.1037C63.0419 41.6572 62.0514 41.0808 61.2639 40.3744C60.4683 39.66 59.8837 38.8643 59.4859 37.9794C59.0962 37.0945 58.9014 36.2014 58.9014 35.3002L64.0974 35.3327Z" fill="#F6B31F"/>
<path d="M112.104 14.2241L117.275 14.1997V20.4755H124.306V24.9814H117.259V34.0013C117.259 34.8862 117.365 35.6169 117.568 36.2015C117.771 36.7779 118.055 37.2407 118.404 37.5735C118.753 37.9064 119.167 38.1419 119.638 38.2799C120.109 38.4179 120.612 38.4828 121.14 38.4828H124.907L124.866 42.7695H120.645C119.459 42.7695 118.347 42.6478 117.3 42.4042C116.26 42.1606 115.351 41.7141 114.58 41.0646C113.809 40.4151 113.2 39.522 112.745 38.3935C112.298 37.265 112.071 35.8118 112.071 34.0419V24.9814H108.385V20.4836H112.12L112.104 14.2241Z" fill="#F6B31F"/>
<path d="M192 19.7042L183.532 42.6477C182.672 45.1726 181.608 46.6665 180.342 47.6976C179.075 48.7286 177.573 49.1346 175.754 49.1995C175.332 49.2158 175.227 49.232 174.593 49.232C173.554 49.232 172.499 49.2158 172.499 49.2158V44.4988C173.952 44.4988 173.376 44.5475 175.202 44.4014C176.233 44.3202 176.932 43.898 177.394 43.4758C177.857 43.0536 178.279 42.6396 178.653 41.6653L178.726 41.4624L170.607 19.696H176.217L181.478 34.2611L186.78 19.696H192V19.7042Z" fill="#F6B31F"/>
</svg>
