<svg width="40" height="50" viewBox="0 0 40 50" fill="none" xmlns="http://www.w3.org/2000/svg">
<path fill-rule="evenodd" clip-rule="evenodd" d="M37.7071 39.1605C33.516 44.3897 27.0764 47.7391 19.8536 47.7391C12.6307 47.7391 6.19115 44.3897 2 39.1605C4.38243 36.1883 7.49106 33.8233 11.0576 32.3359C13.6013 33.9498 16.618 34.8849 19.8536 34.8849C23.0891 34.8849 26.1058 33.9498 28.6496 32.3359C32.2161 33.8233 35.3247 36.1883 37.7071 39.1605Z" stroke="white" stroke-width="3" stroke-miterlimit="22.9256" stroke-linejoin="round"/>
<path d="M19.8536 34.8848C28.9345 34.8848 36.296 27.5233 36.296 18.4424C36.296 9.36152 28.9345 2 19.8536 2C10.7727 2 3.41113 9.36152 3.41113 18.4424C3.41113 27.5233 10.7727 34.8848 19.8536 34.8848Z" stroke="white" stroke-width="3" stroke-miterlimit="22.9256" stroke-linejoin="round"/>
<path d="M19.8537 27.1872C24.6833 27.1872 28.5985 23.272 28.5985 18.4424C28.5985 13.6128 24.6833 9.69763 19.8537 9.69763C15.0241 9.69763 11.1089 13.6128 11.1089 18.4424C11.1089 23.272 15.0241 27.1872 19.8537 27.1872Z" stroke="white" stroke-width="3" stroke-miterlimit="22.9256" stroke-linejoin="round"/>
<path d="M19.8536 21.2317C21.3941 21.2317 22.6428 19.9829 22.6428 18.4425C22.6428 16.9021 21.3941 15.6533 19.8536 15.6533C18.3132 15.6533 17.0645 16.9021 17.0645 18.4425C17.0645 19.9829 18.3132 21.2317 19.8536 21.2317Z" stroke="white" stroke-width="3" stroke-miterlimit="22.9256" stroke-linejoin="round"/>
</svg>
